<svg width="290" height="77" viewBox="0 0 290 77" fill="none" xmlns="http://www.w3.org/2000/svg">
<mask id="path-1-outside-1" maskUnits="userSpaceOnUse" x="0.09375" y="0" width="290" height="77" fill="black">
<rect fill="white" x="0.09375" width="290" height="77"/>
<path d="M2.09375 74V5.75H23.0938C29.0938 5.75 34.4531 7.10938 39.1719 9.82812C43.9219 12.5156 47.625 16.3594 50.2812 21.3594C52.9375 26.3281 54.2656 31.9844 54.2656 38.3281V41.4688C54.2656 47.8125 52.9531 53.4531 50.3281 58.3906C47.7344 63.3281 44.0625 67.1562 39.3125 69.875C34.5625 72.5938 29.2031 73.9688 23.2344 74H2.09375ZM16.1562 17.1406V62.7031H22.9531C28.4531 62.7031 32.6562 60.9062 35.5625 57.3125C38.4688 53.7188 39.9531 48.5781 40.0156 41.8906V38.2812C40.0156 31.3438 38.5781 26.0938 35.7031 22.5312C32.8281 18.9375 28.625 17.1406 23.0938 17.1406H16.1562Z"/>
<path d="M77.9375 74H64.3438V23.2812H77.9375V74ZM63.5469 10.1562C63.5469 8.125 64.2188 6.45312 65.5625 5.14062C66.9375 3.82812 68.7969 3.17188 71.1406 3.17188C73.4531 3.17188 75.2969 3.82812 76.6719 5.14062C78.0469 6.45312 78.7344 8.125 78.7344 10.1562C78.7344 12.2188 78.0312 13.9062 76.625 15.2188C75.25 16.5312 73.4219 17.1875 71.1406 17.1875C68.8594 17.1875 67.0156 16.5312 65.6094 15.2188C64.2344 13.9062 63.5469 12.2188 63.5469 10.1562Z"/>
<path d="M101.609 23.2812L102.031 29.1406C105.656 24.6094 110.516 22.3438 116.609 22.3438C121.984 22.3438 125.984 23.9219 128.609 27.0781C131.234 30.2344 132.578 34.9531 132.641 41.2344V74H119.094V41.5625C119.094 38.6875 118.469 36.6094 117.219 35.3281C115.969 34.0156 113.891 33.3594 110.984 33.3594C107.172 33.3594 104.312 34.9844 102.406 38.2344V74H88.8594V23.2812H101.609Z"/>
<path d="M166.297 74.9375C158.859 74.9375 152.797 72.6562 148.109 68.0938C143.453 63.5312 141.125 57.4531 141.125 49.8594V48.5469C141.125 43.4531 142.109 38.9062 144.078 34.9062C146.047 30.875 148.828 27.7812 152.422 25.625C156.047 23.4375 160.172 22.3438 164.797 22.3438C171.734 22.3438 177.188 24.5312 181.156 28.9062C185.156 33.2812 187.156 39.4844 187.156 47.5156V53.0469H154.859C155.297 56.3594 156.609 59.0156 158.797 61.0156C161.016 63.0156 163.812 64.0156 167.188 64.0156C172.406 64.0156 176.484 62.125 179.422 58.3438L186.078 65.7969C184.047 68.6719 181.297 70.9219 177.828 72.5469C174.359 74.1406 170.516 74.9375 166.297 74.9375ZM164.75 33.3125C162.062 33.3125 159.875 34.2188 158.188 36.0312C156.531 37.8438 155.469 40.4375 155 43.8125H173.844V42.7344C173.781 39.7344 172.969 37.4219 171.406 35.7969C169.844 34.1406 167.625 33.3125 164.75 33.3125Z"/>
<path d="M222.359 59.9844C222.359 58.3281 221.531 57.0312 219.875 56.0938C218.25 55.125 215.625 54.2656 212 53.5156C199.938 50.9844 193.906 45.8594 193.906 38.1406C193.906 33.6406 195.766 29.8906 199.484 26.8906C203.234 23.8594 208.125 22.3438 214.156 22.3438C220.594 22.3438 225.734 23.8594 229.578 26.8906C233.453 29.9219 235.391 33.8594 235.391 38.7031H221.844C221.844 36.7656 221.219 35.1719 219.969 33.9219C218.719 32.6406 216.766 32 214.109 32C211.828 32 210.062 32.5156 208.812 33.5469C207.562 34.5781 206.938 35.8906 206.938 37.4844C206.938 38.9844 207.641 40.2031 209.047 41.1406C210.484 42.0469 212.891 42.8438 216.266 43.5312C219.641 44.1875 222.484 44.9375 224.797 45.7812C231.953 48.4062 235.531 52.9531 235.531 59.4219C235.531 64.0469 233.547 67.7969 229.578 70.6719C225.609 73.5156 220.484 74.9375 214.203 74.9375C209.953 74.9375 206.172 74.1875 202.859 72.6875C199.578 71.1562 197 69.0781 195.125 66.4531C193.25 63.7969 192.312 60.9375 192.312 57.875H205.156C205.281 60.2812 206.172 62.125 207.828 63.4062C209.484 64.6875 211.703 65.3281 214.484 65.3281C217.078 65.3281 219.031 64.8438 220.344 63.875C221.688 62.875 222.359 61.5781 222.359 59.9844Z"/>
<path d="M257.516 28.8125C261.109 24.5 265.625 22.3438 271.062 22.3438C282.062 22.3438 287.641 28.7344 287.797 41.5156V74H274.25V41.8906C274.25 38.9844 273.625 36.8438 272.375 35.4688C271.125 34.0625 269.047 33.3594 266.141 33.3594C262.172 33.3594 259.297 34.8906 257.516 37.9531V74H243.969V2H257.516V28.8125Z"/>
</mask>
<path d="M2.09375 74V5.75H23.0938C29.0938 5.75 34.4531 7.10938 39.1719 9.82812C43.9219 12.5156 47.625 16.3594 50.2812 21.3594C52.9375 26.3281 54.2656 31.9844 54.2656 38.3281V41.4688C54.2656 47.8125 52.9531 53.4531 50.3281 58.3906C47.7344 63.3281 44.0625 67.1562 39.3125 69.875C34.5625 72.5938 29.2031 73.9688 23.2344 74H2.09375ZM16.1562 17.1406V62.7031H22.9531C28.4531 62.7031 32.6562 60.9062 35.5625 57.3125C38.4688 53.7188 39.9531 48.5781 40.0156 41.8906V38.2812C40.0156 31.3438 38.5781 26.0938 35.7031 22.5312C32.8281 18.9375 28.625 17.1406 23.0938 17.1406H16.1562Z" stroke="#F7F7F7" stroke-width="4" mask="url(#path-1-outside-1)"/>
<path d="M77.9375 74H64.3438V23.2812H77.9375V74ZM63.5469 10.1562C63.5469 8.125 64.2188 6.45312 65.5625 5.14062C66.9375 3.82812 68.7969 3.17188 71.1406 3.17188C73.4531 3.17188 75.2969 3.82812 76.6719 5.14062C78.0469 6.45312 78.7344 8.125 78.7344 10.1562C78.7344 12.2188 78.0312 13.9062 76.625 15.2188C75.25 16.5312 73.4219 17.1875 71.1406 17.1875C68.8594 17.1875 67.0156 16.5312 65.6094 15.2188C64.2344 13.9062 63.5469 12.2188 63.5469 10.1562Z" stroke="#F7F7F7" stroke-width="4" mask="url(#path-1-outside-1)"/>
<path d="M101.609 23.2812L102.031 29.1406C105.656 24.6094 110.516 22.3438 116.609 22.3438C121.984 22.3438 125.984 23.9219 128.609 27.0781C131.234 30.2344 132.578 34.9531 132.641 41.2344V74H119.094V41.5625C119.094 38.6875 118.469 36.6094 117.219 35.3281C115.969 34.0156 113.891 33.3594 110.984 33.3594C107.172 33.3594 104.312 34.9844 102.406 38.2344V74H88.8594V23.2812H101.609Z" stroke="#F7F7F7" stroke-width="4" mask="url(#path-1-outside-1)"/>
<path d="M166.297 74.9375C158.859 74.9375 152.797 72.6562 148.109 68.0938C143.453 63.5312 141.125 57.4531 141.125 49.8594V48.5469C141.125 43.4531 142.109 38.9062 144.078 34.9062C146.047 30.875 148.828 27.7812 152.422 25.625C156.047 23.4375 160.172 22.3438 164.797 22.3438C171.734 22.3438 177.188 24.5312 181.156 28.9062C185.156 33.2812 187.156 39.4844 187.156 47.5156V53.0469H154.859C155.297 56.3594 156.609 59.0156 158.797 61.0156C161.016 63.0156 163.812 64.0156 167.188 64.0156C172.406 64.0156 176.484 62.125 179.422 58.3438L186.078 65.7969C184.047 68.6719 181.297 70.9219 177.828 72.5469C174.359 74.1406 170.516 74.9375 166.297 74.9375ZM164.75 33.3125C162.062 33.3125 159.875 34.2188 158.188 36.0312C156.531 37.8438 155.469 40.4375 155 43.8125H173.844V42.7344C173.781 39.7344 172.969 37.4219 171.406 35.7969C169.844 34.1406 167.625 33.3125 164.75 33.3125Z" stroke="#F7F7F7" stroke-width="4" mask="url(#path-1-outside-1)"/>
<path d="M222.359 59.9844C222.359 58.3281 221.531 57.0312 219.875 56.0938C218.25 55.125 215.625 54.2656 212 53.5156C199.938 50.9844 193.906 45.8594 193.906 38.1406C193.906 33.6406 195.766 29.8906 199.484 26.8906C203.234 23.8594 208.125 22.3438 214.156 22.3438C220.594 22.3438 225.734 23.8594 229.578 26.8906C233.453 29.9219 235.391 33.8594 235.391 38.7031H221.844C221.844 36.7656 221.219 35.1719 219.969 33.9219C218.719 32.6406 216.766 32 214.109 32C211.828 32 210.062 32.5156 208.812 33.5469C207.562 34.5781 206.938 35.8906 206.938 37.4844C206.938 38.9844 207.641 40.2031 209.047 41.1406C210.484 42.0469 212.891 42.8438 216.266 43.5312C219.641 44.1875 222.484 44.9375 224.797 45.7812C231.953 48.4062 235.531 52.9531 235.531 59.4219C235.531 64.0469 233.547 67.7969 229.578 70.6719C225.609 73.5156 220.484 74.9375 214.203 74.9375C209.953 74.9375 206.172 74.1875 202.859 72.6875C199.578 71.1562 197 69.0781 195.125 66.4531C193.25 63.7969 192.312 60.9375 192.312 57.875H205.156C205.281 60.2812 206.172 62.125 207.828 63.4062C209.484 64.6875 211.703 65.3281 214.484 65.3281C217.078 65.3281 219.031 64.8438 220.344 63.875C221.688 62.875 222.359 61.5781 222.359 59.9844Z" stroke="#F7F7F7" stroke-width="4" mask="url(#path-1-outside-1)"/>
<path d="M257.516 28.8125C261.109 24.5 265.625 22.3438 271.062 22.3438C282.062 22.3438 287.641 28.7344 287.797 41.5156V74H274.25V41.8906C274.25 38.9844 273.625 36.8438 272.375 35.4688C271.125 34.0625 269.047 33.3594 266.141 33.3594C262.172 33.3594 259.297 34.8906 257.516 37.9531V74H243.969V2H257.516V28.8125Z" stroke="#F7F7F7" stroke-width="4" mask="url(#path-1-outside-1)"/>
</svg>
